<svg xmlns="http://www.w3.org/2000/svg" xmlns:xlink="http://www.w3.org/1999/xlink" width="192" zoomAndPan="magnify" viewBox="0 0 144 143.999998" height="192" preserveAspectRatio="xMidYMid meet" version="1.0"><defs><g/><clipPath id="4e1eaff48c"><path d="M 43.152344 75.003906 L 144 75.003906 L 144 85.597656 L 43.152344 85.597656 Z M 43.152344 75.003906 " clip-rule="nonzero"/></clipPath></defs><g fill="#ffffff" fill-opacity="1"><g transform="translate(14.740936, 91.626797)"><g><path d="M 8.496094 0 L 15.3125 0 L 15.3125 -51.289062 L 14.683594 -63.875 C 15.628906 -61.882812 17.410156 -53.808594 19.824219 -48.246094 L 40.589844 0 L 47.617188 0 L 47.617188 -75.203125 L 40.695312 -75.203125 L 40.695312 -25.171875 L 41.324219 -12.796875 C 40.800781 -13.84375 39.019531 -21.292969 37.339844 -25.59375 L 16.46875 -75.203125 L 8.496094 -75.203125 Z M 8.496094 0 "/></g></g></g><g fill="#efedee" fill-opacity="1"><g transform="translate(38.155235, 109.769931)"><g><path d="M 48.980469 -75.203125 L 41.117188 -75.203125 L 25.59375 -38.492188 L 9.964844 -75.203125 L 2.203125 -75.203125 L 22.027344 -29.894531 L 22.027344 0 L 29.261719 0 L 29.261719 -30.101562 Z M 48.980469 -75.203125 "/></g></g></g><g clip-path="url(#4e1eaff48c)"><path fill="#fffafa" d="M 43.152344 75.003906 L 163.65625 75.003906 L 163.65625 85.546875 L 43.152344 85.546875 Z M 43.152344 75.003906 " fill-opacity="1" fill-rule="nonzero"/></g><g fill="#2e2727" fill-opacity="1"><g transform="translate(43.82626, 83.140588)"><g><path d="M 6.046875 -6.046875 L 6.046875 0 L 5.40625 0 L 5.40625 -2.796875 L 1.625 -2.796875 L 1.625 0 L 0.984375 0 L 0.984375 -6.046875 L 1.625 -6.046875 L 1.625 -3.359375 L 5.40625 -3.359375 L 5.40625 -6.046875 Z M 6.046875 -6.046875 "/></g></g></g><g fill="#2e2727" fill-opacity="1"><g transform="translate(50.846708, 83.140588)"><g><path d="M 4.78125 -1.609375 L 1.40625 -1.609375 L 0.6875 0 L 0.015625 0 L 2.78125 -6.046875 L 3.40625 -6.046875 L 6.171875 0 L 5.5 0 Z M 4.546875 -2.140625 L 3.09375 -5.390625 L 1.640625 -2.140625 Z M 4.546875 -2.140625 "/></g></g></g><g fill="#2e2727" fill-opacity="1"><g transform="translate(57.038173, 83.140588)"><g><path d="M 3.25 -6.046875 C 4.019531 -6.046875 4.625 -5.859375 5.0625 -5.484375 C 5.5 -5.117188 5.71875 -4.613281 5.71875 -3.96875 C 5.71875 -3.320312 5.5 -2.816406 5.0625 -2.453125 C 4.625 -2.085938 4.019531 -1.90625 3.25 -1.90625 L 1.625 -1.90625 L 1.625 0 L 0.984375 0 L 0.984375 -6.046875 Z M 3.234375 -2.46875 C 3.828125 -2.46875 4.28125 -2.597656 4.59375 -2.859375 C 4.914062 -3.117188 5.078125 -3.488281 5.078125 -3.96875 C 5.078125 -4.457031 4.914062 -4.832031 4.59375 -5.09375 C 4.28125 -5.363281 3.828125 -5.5 3.234375 -5.5 L 1.625 -5.5 L 1.625 -2.46875 Z M 3.234375 -2.46875 "/></g></g></g><g fill="#2e2727" fill-opacity="1"><g transform="translate(63.238272, 83.140588)"><g><path d="M 3.25 -6.046875 C 4.019531 -6.046875 4.625 -5.859375 5.0625 -5.484375 C 5.5 -5.117188 5.71875 -4.613281 5.71875 -3.96875 C 5.71875 -3.320312 5.5 -2.816406 5.0625 -2.453125 C 4.625 -2.085938 4.019531 -1.90625 3.25 -1.90625 L 1.625 -1.90625 L 1.625 0 L 0.984375 0 L 0.984375 -6.046875 Z M 3.234375 -2.46875 C 3.828125 -2.46875 4.28125 -2.597656 4.59375 -2.859375 C 4.914062 -3.117188 5.078125 -3.488281 5.078125 -3.96875 C 5.078125 -4.457031 4.914062 -4.832031 4.59375 -5.09375 C 4.28125 -5.363281 3.828125 -5.5 3.234375 -5.5 L 1.625 -5.5 L 1.625 -2.46875 Z M 3.234375 -2.46875 "/></g></g></g><g fill="#2e2727" fill-opacity="1"><g transform="translate(69.438372, 83.140588)"><g><path d="M 3.0625 -2.09375 L 3.0625 0 L 2.421875 0 L 2.421875 -2.09375 L 0.015625 -6.046875 L 0.6875 -6.046875 L 2.765625 -2.65625 L 4.84375 -6.046875 L 5.484375 -6.046875 Z M 3.0625 -2.09375 "/></g></g></g><g fill="#2e2727" fill-opacity="1"><g transform="translate(74.921747, 83.140588)"><g><path d="M 4.578125 -0.546875 L 4.578125 0 L 0.34375 0 L 0.34375 -0.4375 L 2.84375 -2.90625 C 3.164062 -3.21875 3.378906 -3.484375 3.484375 -3.703125 C 3.597656 -3.929688 3.65625 -4.160156 3.65625 -4.390625 C 3.65625 -4.753906 3.53125 -5.035156 3.28125 -5.234375 C 3.039062 -5.429688 2.695312 -5.53125 2.25 -5.53125 C 1.539062 -5.53125 0.988281 -5.304688 0.59375 -4.859375 L 0.15625 -5.234375 C 0.394531 -5.515625 0.695312 -5.726562 1.0625 -5.875 C 1.425781 -6.019531 1.835938 -6.09375 2.296875 -6.09375 C 2.910156 -6.09375 3.394531 -5.945312 3.75 -5.65625 C 4.113281 -5.375 4.296875 -4.976562 4.296875 -4.46875 C 4.296875 -4.15625 4.226562 -3.851562 4.09375 -3.5625 C 3.957031 -3.28125 3.695312 -2.953125 3.3125 -2.578125 L 1.25 -0.546875 Z M 4.578125 -0.546875 "/></g></g></g><g fill="#2e2727" fill-opacity="1"><g transform="translate(80.283995, 83.140588)"><g><path d="M 6.1875 -6.046875 L 6.1875 0 L 5.265625 0 L 1.921875 -4.09375 L 1.921875 0 L 0.8125 0 L 0.8125 -6.046875 L 1.734375 -6.046875 L 5.078125 -1.953125 L 5.078125 -6.046875 Z M 6.1875 -6.046875 "/></g></g></g><g fill="#2e2727" fill-opacity="1"><g transform="translate(87.278539, 83.140588)"><g><path d="M 5.34375 -0.9375 L 5.34375 0 L 0.8125 0 L 0.8125 -6.046875 L 5.234375 -6.046875 L 5.234375 -5.109375 L 1.9375 -5.109375 L 1.9375 -3.53125 L 4.859375 -3.53125 L 4.859375 -2.609375 L 1.9375 -2.609375 L 1.9375 -0.9375 Z M 5.34375 -0.9375 "/></g></g></g><g fill="#2e2727" fill-opacity="1"><g transform="translate(93.064149, 83.140588)"><g><path d="M 9.65625 -6.046875 L 7.640625 0 L 6.453125 0 L 4.953125 -4.46875 L 3.4375 0 L 2.234375 0 L 0.234375 -6.046875 L 1.40625 -6.046875 L 2.90625 -1.453125 L 4.46875 -6.046875 L 5.5 -6.046875 L 7.03125 -1.421875 L 8.578125 -6.046875 Z M 9.65625 -6.046875 "/></g></g></g><g fill="#2e2727" fill-opacity="1"><g transform="translate(102.942862, 83.140588)"><g><path d="M 3.421875 -2.140625 L 3.421875 0 L 2.296875 0 L 2.296875 -2.109375 L -0.078125 -6.046875 L 1.125 -6.046875 L 2.890625 -3.109375 L 4.6875 -6.046875 L 5.796875 -6.046875 Z M 3.421875 -2.140625 "/></g></g></g><g fill="#2e2727" fill-opacity="1"><g transform="translate(108.650753, 83.140588)"><g><path d="M 5.34375 -0.9375 L 5.34375 0 L 0.8125 0 L 0.8125 -6.046875 L 5.234375 -6.046875 L 5.234375 -5.109375 L 1.9375 -5.109375 L 1.9375 -3.53125 L 4.859375 -3.53125 L 4.859375 -2.609375 L 1.9375 -2.609375 L 1.9375 -0.9375 Z M 5.34375 -0.9375 "/></g></g></g><g fill="#2e2727" fill-opacity="1"><g transform="translate(114.436363, 83.140588)"><g><path d="M 4.734375 -1.40625 L 1.703125 -1.40625 L 1.109375 0 L -0.046875 0 L 2.671875 -6.046875 L 3.78125 -6.046875 L 6.515625 0 L 5.34375 0 Z M 4.359375 -2.28125 L 3.21875 -4.921875 L 2.09375 -2.28125 Z M 4.359375 -2.28125 "/></g></g></g><g fill="#2e2727" fill-opacity="1"><g transform="translate(120.904155, 83.140588)"><g><path d="M 4.765625 0 L 3.53125 -1.765625 C 3.476562 -1.765625 3.398438 -1.765625 3.296875 -1.765625 L 1.9375 -1.765625 L 1.9375 0 L 0.8125 0 L 0.8125 -6.046875 L 3.296875 -6.046875 C 3.828125 -6.046875 4.285156 -5.957031 4.671875 -5.78125 C 5.054688 -5.613281 5.351562 -5.367188 5.5625 -5.046875 C 5.769531 -4.722656 5.875 -4.335938 5.875 -3.890625 C 5.875 -3.441406 5.757812 -3.050781 5.53125 -2.71875 C 5.3125 -2.394531 5 -2.148438 4.59375 -1.984375 L 5.984375 0 Z M 4.75 -3.890625 C 4.75 -4.273438 4.617188 -4.570312 4.359375 -4.78125 C 4.109375 -4.988281 3.738281 -5.09375 3.25 -5.09375 L 1.9375 -5.09375 L 1.9375 -2.6875 L 3.25 -2.6875 C 3.738281 -2.6875 4.109375 -2.789062 4.359375 -3 C 4.617188 -3.207031 4.75 -3.503906 4.75 -3.890625 Z M 4.75 -3.890625 "/></g></g></g></svg>