<svg xmlns="http://www.w3.org/2000/svg" xmlns:xlink="http://www.w3.org/1999/xlink" width="500" zoomAndPan="magnify" viewBox="0 0 375 374.999991" height="500" preserveAspectRatio="xMidYMid meet" version="1.0"><rect x="-37.5" width="450" fill="#ffffff" y="-37.499999" height="449.999989" fill-opacity="1"/><rect x="-37.5" width="450" fill="#ffffff" y="-37.499999" height="449.999989" fill-opacity="1"/><rect x="-37.5" width="450" fill="#ffffff" y="-37.499999" height="449.999989" fill-opacity="1"/><path fill="#040606" d="M 140.355469 47.59375 C 163.074219 47.925781 184.746094 57.078125 200.820312 73.152344 C 234.898438 107.234375 234.898438 162.519531 200.820312 196.601562 C 166.742188 230.679688 111.460938 230.710938 77.355469 196.601562 C 43.277344 162.519531 43.277344 107.234375 77.355469 73.152344 C 94.035156 56.472656 116.78125 47.234375 140.355469 47.59375 Z M 140.605469 32.207031 C 112.839844 31.792969 86.125 42.628906 66.492188 62.261719 C 26.402344 102.355469 26.375 167.371094 66.492188 207.492188 C 106.582031 247.585938 171.59375 247.585938 211.683594 207.492188 C 251.800781 167.371094 251.800781 102.355469 211.683594 62.261719 C 192.796875 43.375 167.292969 32.59375 140.605469 32.207031 " fill-opacity="1" fill-rule="nonzero"/><path fill="#040606" d="M 202.613281 198.394531 C 207.164062 193.871094 214.523438 193.871094 219.074219 198.394531 L 293.378906 272.703125 C 297.902344 277.253906 297.902344 284.617188 293.378906 289.164062 C 288.832031 293.714844 281.46875 293.714844 276.917969 289.164062 L 202.613281 214.855469 C 198.066406 210.304688 198.066406 202.941406 202.613281 198.394531 " fill-opacity="1" fill-rule="nonzero"/><path fill="#040606" d="M 236.363281 253.125 L 257.34375 232.171875 C 261.894531 227.621094 269.253906 227.621094 273.804688 232.171875 L 343.558594 301.929688 C 348.109375 306.453125 348.109375 313.816406 343.558594 318.367188 L 322.578125 339.347656 C 318.027344 343.898438 310.667969 343.898438 306.144531 339.347656 L 236.363281 269.585938 C 231.8125 265.039062 231.8125 257.675781 236.363281 253.125 " fill-opacity="1" fill-rule="nonzero"/><path fill="#040606" d="M 168.121094 163.925781 C 171.15625 160.894531 171.15625 156.011719 168.121094 153.007812 L 120.945312 105.828125 C 117.941406 102.796875 113.0625 102.796875 110.027344 105.828125 C 107.023438 108.835938 107.023438 113.742188 110.027344 116.746094 L 157.203125 163.925781 C 160.234375 166.929688 165.117188 166.929688 168.121094 163.925781 " fill-opacity="1" fill-rule="nonzero"/><path fill="#040606" d="M 110.027344 163.925781 C 113.0625 166.929688 117.941406 166.929688 120.945312 163.925781 L 168.121094 116.746094 C 171.15625 113.742188 171.15625 108.835938 168.121094 105.828125 C 165.117188 102.824219 160.234375 102.824219 157.203125 105.828125 L 110.027344 153.007812 C 107.023438 156.011719 107.023438 160.894531 110.027344 163.925781 " fill-opacity="1" fill-rule="nonzero"/></svg>